<svg width="248" height="106" viewBox="0 0 248 106" fill="none" xmlns="http://www.w3.org/2000/svg">
<g opacity="0.68" clip-path="url(#clip0_101_633)">
<path d="M96.7695 102.381V29.7154C96.7695 28.5256 97.7108 27.5522 98.8826 27.5522H103.253C104.415 27.5522 105.366 28.5158 105.366 29.7154V102.381C105.366 103.571 104.425 104.545 103.253 104.545H98.8826C97.7204 104.545 96.7695 103.581 96.7695 102.381ZM101.678 23.5305C101.284 23.9238 100.756 24.1401 100.208 24.1401H100.093L106.461 12.901C106.836 12.2323 107.537 11.8193 108.286 11.8193C110.188 11.8193 111.119 14.1891 109.755 15.5362L101.668 23.5305H101.678Z" fill="black"/>
<path d="M126.823 104.535H125.959C123.826 104.535 122.088 102.765 122.088 100.572V31.5052C122.088 29.3223 123.817 27.5425 125.959 27.5425H147.772C175.453 27.5425 178.632 63.3937 157.328 71.5846C155.225 72.3909 154.293 74.9278 155.283 77.0026L165.685 98.8417C166.933 101.467 165.07 104.535 162.208 104.535C160.738 104.535 159.394 103.68 158.74 102.323L145.822 75.508C145.169 74.151 143.824 73.2955 142.354 73.2955H134.555C132.423 73.2955 130.684 75.0655 130.684 77.2582V100.572C130.684 102.755 128.955 104.535 126.814 104.535H126.823ZM130.684 68.2414C130.684 70.4243 132.413 72.2041 134.555 72.2041H147.772C165.281 72.2041 165.281 28.6536 147.772 28.6536H134.555C132.423 28.6536 130.684 30.4236 130.684 32.6163V68.2512V68.2414Z" fill="black"/>
<path d="M180.429 100.14V31.9476C180.429 29.5189 182.35 27.5522 184.722 27.5522C187.095 27.5522 189.016 29.5189 189.016 31.9476V100.14C189.016 102.568 187.095 104.535 184.722 104.535C182.35 104.535 180.429 102.568 180.429 100.14Z" fill="black"/>
<path d="M197.958 93.4136C198.178 93.1874 198.534 93.2071 198.736 93.4627C204.902 101.152 212.567 104.328 224.15 104.328C234.677 104.328 244.349 98.1728 244.349 88.9297C244.349 69.7947 202.232 71.6629 202.232 46.9132C202.232 34.9268 212.115 26.4507 224.045 26.4507C228.876 26.4507 236.368 27.7093 243.216 32.0752C243.475 32.2423 243.543 32.6062 243.36 32.8618C243.197 33.088 242.88 33.1371 242.649 32.9798C235.888 28.3976 228.578 27.7683 224.045 27.7683C213.085 27.7683 205.67 35.4676 205.67 42.8325C205.67 60.5418 247.999 57.2379 247.999 84.849C247.999 99.2544 236.397 105.636 224.15 105.636C212.624 105.636 204.22 102.224 197.91 94.1412C197.737 93.9249 197.756 93.6102 197.948 93.4136H197.958Z" fill="black"/>
<path d="M62.5761 83.856C63.4405 83.856 63.4405 82.4893 62.5761 82.4893C61.7116 82.4893 61.7116 83.856 62.5761 83.856Z" fill="white"/>
<path d="M66.3894 47.3657C75.5717 52.5674 81.3827 63.0297 81.8821 73.6592C82.1415 79.2739 81.0369 84.9672 78.6741 90.041C77.5599 92.4305 76.1864 94.7216 74.5247 96.757C72.8631 98.7924 70.702 101.084 68.2239 102.283C65.4673 103.611 62.1055 103.188 59.1472 103.168C55.6606 103.139 52.1644 103.109 48.6778 103.08C45.6619 103.05 42.3866 103.296 39.6588 101.742C37.1327 100.307 35.2213 97.8583 33.5788 95.4787C30.2363 90.6212 27.7294 84.9967 27.1339 79.0379C26.5 72.7054 27.8735 66.2353 30.755 60.6206C32.2533 57.6904 34.1359 54.9863 36.3162 52.5477C37.3824 51.3579 38.5254 50.2271 39.7164 49.1652C40.3119 48.6342 40.917 48.054 41.6086 47.6509C42.3962 47.1887 43.1934 47.2281 44.0674 47.2772C51.8282 47.6902 59.5794 47.9557 67.3498 47.877C69.0691 47.8574 69.0787 45.114 67.3498 45.1336C59.7427 45.2025 52.1356 45.0058 44.5381 44.5633C43.0013 44.4748 41.6278 44.4748 40.2543 45.291C38.8808 46.1071 37.6513 47.3362 36.5083 48.4572C34.2608 50.6401 32.2341 53.0787 30.5052 55.7041C26.7593 61.4073 24.5117 68.1724 24.3196 75.0654C24.1275 81.9583 26.0773 88.1138 29.3238 93.7776C32.3686 99.0973 36.5083 104.751 42.886 105.597C46.5071 106.079 50.2818 105.853 53.9221 105.882C57.5624 105.912 61.3179 106.177 64.9582 105.882C71.0574 105.381 75.6389 100.395 78.8182 95.4197C81.9974 90.4442 83.928 84.5051 84.4659 78.5266C85.6569 65.3503 79.2024 51.4956 67.7533 45.0156C66.2453 44.1602 64.891 46.5299 66.399 47.3854L66.3894 47.3657Z" fill="black"/>
<path d="M65.3135 35.389C65.2654 38.7519 65.083 42.1148 65.3327 45.4777C65.3903 46.2151 65.909 46.8445 66.6678 46.8445C67.3497 46.8445 68.0605 46.2151 68.0029 45.4777C67.7531 42.1148 67.9356 38.7519 67.9837 35.389C68.0029 33.619 65.3327 33.619 65.3039 35.389H65.3135Z" fill="black"/>
<path d="M41.3202 34.4059C41.1281 38.0342 41.0897 41.6626 41.1953 45.2812C41.2145 46.0187 41.7908 46.648 42.5304 46.648C43.27 46.648 43.8943 46.0187 43.8655 45.2812C43.7599 41.6528 43.7983 38.0244 43.9904 34.4059C44.0288 33.6684 43.3469 33.0391 42.6553 33.0391C41.8965 33.0391 41.3586 33.6684 41.3202 34.4059Z" fill="black"/>
<path d="M42.8673 35.6545C50.7049 35.8413 58.5426 35.9298 66.3898 35.9101C68.1091 35.9101 68.1187 33.1667 66.3898 33.1667C58.5522 33.1864 50.7049 33.0979 42.8673 32.9111C41.1384 32.8717 41.148 35.6151 42.8673 35.6545Z" fill="black"/>
<path d="M66.9276 35.9597L66.5722 36.0089C66.5722 36.0089 66.5722 36.0089 66.5818 36.0089L66.2264 35.9597C66.2264 35.9597 66.2264 35.9597 66.236 35.9597L65.919 35.8221C65.919 35.8221 65.919 35.8221 65.9286 35.8221L65.6597 35.6057C65.6597 35.6057 65.6597 35.6057 65.6693 35.6156L65.458 35.3402C65.458 35.3402 65.458 35.3402 65.458 35.3501L65.3235 35.0256C65.3619 35.2026 65.4484 35.3599 65.5637 35.4877C65.6597 35.6352 65.7846 35.7532 65.9382 35.8417C66.0919 35.9401 66.2552 35.9991 66.4377 36.0089C66.6202 36.0482 66.7931 36.0384 66.9756 35.9892L67.2925 35.8516C67.4942 35.7336 67.6575 35.5664 67.7728 35.3599L67.9073 35.0354C67.9745 34.7896 67.9745 34.5536 67.9073 34.3078C67.8784 34.1898 67.8208 34.0816 67.7728 33.9735C67.7056 33.8751 67.6287 33.7866 67.5615 33.6981C67.5135 33.6588 67.475 33.6195 67.427 33.59C67.379 33.5506 67.331 33.5211 67.2925 33.4818L66.9756 33.3441C66.918 33.3245 66.7835 33.3146 66.7835 33.3146C66.8027 33.3146 66.6586 33.2851 66.5914 33.295C66.4761 33.295 66.3416 33.295 66.2264 33.3441C66.0535 33.3835 65.8998 33.472 65.775 33.59C65.6309 33.6883 65.5156 33.8161 65.4292 33.9735C65.3331 34.1308 65.2755 34.2979 65.2659 34.4848C65.2275 34.6716 65.2371 34.8486 65.2851 35.0354L65.4196 35.3599C65.5348 35.5664 65.6981 35.7336 65.8998 35.8516L66.2168 35.9892C66.4569 36.0581 66.6874 36.0581 66.9276 35.9892V35.9597Z" fill="black"/>
<path d="M66.5721 36.0085C68.2913 36.0085 68.301 33.2651 66.5721 33.2651C64.8432 33.2651 64.8432 36.0085 66.5721 36.0085Z" fill="black"/>
<path d="M65.9288 35.8613L65.996 35.9007C66.1497 35.999 66.313 36.058 66.4955 36.0678C66.678 36.1072 66.8509 36.0973 67.0334 36.0482C67.2063 36.0088 67.36 35.9203 67.4848 35.8023C67.6289 35.704 67.7442 35.5762 67.8306 35.4189L67.9651 35.0944C68.0323 34.8485 68.0323 34.6126 67.9651 34.3667L67.8306 34.0422C67.7153 33.8357 67.5521 33.6686 67.3504 33.5506L67.2831 33.5113C67.1294 33.4129 66.9661 33.3539 66.7837 33.3441C66.6012 33.3048 66.4283 33.3146 66.2458 33.3638C66.0729 33.4031 65.9192 33.4916 65.7943 33.6096C65.6503 33.7079 65.535 33.8357 65.4486 33.9931L65.3141 34.3176C65.2469 34.5634 65.2469 34.7994 65.3141 35.0452L65.4486 35.3697C65.5638 35.5762 65.7271 35.7434 65.9288 35.8613Z" fill="black"/>
<path d="M59.5604 23.6093C58.1004 26.0577 59.1858 28.8995 60.3384 31.2102C60.9147 32.3705 61.6447 33.4227 62.6724 34.2093C63.1526 34.5731 63.7193 34.8583 64.3052 34.9861C64.6222 35.0549 64.9488 35.0943 65.2753 35.0943C65.3618 35.0943 65.5827 35.1041 65.5731 35.0746L65.3522 34.9173C65.2177 34.7501 65.1697 34.5436 65.2081 34.2978C64.9968 35.0058 65.4578 35.7924 66.1398 35.9891C66.8217 36.1857 67.5805 35.7432 67.7918 35.0353C68.0031 34.3273 67.7918 33.5111 67.254 32.99C66.6777 32.4197 65.9573 32.3804 65.1985 32.3607C64.8527 32.3607 64.5454 32.2329 64.1612 31.9477C63.8634 31.7314 63.4984 31.2889 63.2583 30.9152C62.6628 29.9811 62.1441 28.9191 61.8079 27.8473C61.4718 26.7755 61.3853 25.8414 61.8848 25.0056C62.7877 23.4913 60.4729 22.1147 59.57 23.6191L59.5604 23.6093Z" fill="black"/>
<path d="M47.4006 24.2189C47.9289 26.156 47.9193 28.6635 46.7186 30.3646C46.248 31.0234 45.5372 31.5249 44.7784 31.9182C43.9428 32.3509 42.819 32.577 42.1179 33.4128C41.6472 33.9733 41.58 34.7993 42.1179 35.3499C42.5981 35.8416 43.5394 35.9104 44.0101 35.3499C44.2021 35.1238 44.1829 35.1434 44.4423 35.0156C44.3078 35.0844 44.6728 34.9173 44.6728 34.9173C44.7688 34.8779 44.8649 34.8484 44.9513 34.8091C45.518 34.5731 46.0847 34.3273 46.613 34.0028C47.6503 33.3735 48.5724 32.518 49.2063 31.456C50.5798 29.1551 50.6663 26.0184 49.9843 23.4716C49.5233 21.7705 46.9396 22.4982 47.4006 24.1993V24.2189Z" fill="black"/>
<path d="M60.6844 22.5474C58.6866 22.7342 56.7175 22.5769 54.7293 22.6359C53.8168 22.6555 52.9044 22.8424 51.9919 22.7932C50.9065 22.7342 49.9076 22.5769 48.8319 22.803C48.1211 22.9505 47.7177 23.806 47.9002 24.4943C48.1019 25.2514 48.8415 25.6054 49.5522 25.4481C50.4263 25.2613 51.3484 25.5169 52.2224 25.5464C53.0965 25.5759 54.0474 25.3793 54.9694 25.3694C56.8904 25.3596 58.7826 25.4678 60.7036 25.2908C61.424 25.2219 62.0387 24.7106 62.0387 23.924C62.0387 23.2357 61.424 22.4884 60.7036 22.5572L60.6844 22.5474Z" fill="black"/>
<path d="M49.1972 22.3801C47.9101 22.0064 46.8728 21.5246 46.5558 20.1283C46.3253 19.1057 46.4309 17.9454 46.94 17.0309C47.5643 15.9198 48.765 15.5953 49.9368 15.4084C51.4928 15.1626 53.1064 15.1528 54.672 15.2609C56.132 15.3691 57.5343 15.3199 58.9942 15.2609C60.0988 15.2118 61.3474 15.2511 62.2023 16.0869C62.9803 16.8539 63.23 18.8008 62.9899 19.853C62.6825 21.1706 61.4627 21.9867 60.435 22.6947C59.0134 23.678 60.3581 26.0576 61.7893 25.0645C62.9803 24.2385 64.1713 23.3634 64.9397 22.0851C65.8041 20.6593 65.7657 19.204 65.5448 17.611C65.3239 16.0181 64.9109 14.7791 63.6911 13.8057C62.5865 12.9207 61.2418 12.5667 59.8587 12.5175C58.2354 12.4585 56.6506 12.6847 55.0274 12.5569C53.3081 12.4192 51.5984 12.4585 49.8983 12.6749C48.4 12.8715 46.9208 13.2353 45.7394 14.2678C44.7693 15.1135 44.145 16.3721 43.9144 17.6405C43.6263 19.1647 43.78 20.8264 44.4619 22.2326C45.2303 23.8058 46.9208 24.5925 48.4864 25.0448C50.1481 25.5266 50.8588 22.8815 49.1972 22.3997V22.3801Z" fill="black"/>
<path d="M42.0983 22.0062L32.1187 27.7782C29.0067 29.5776 25.9043 31.5245 22.533 32.8028C16.6931 35.0251 10.0657 34.7006 6.27177 29.027C4.42762 26.2737 2.88122 22.9108 2.67951 19.5283C2.47781 16.1457 3.31344 12.95 4.91747 10.118C8.00066 4.72955 14.0806 1.55348 20.1413 3.14643C23.9353 4.1494 27.4315 6.76499 30.7932 8.74142C34.4911 10.9145 38.1986 13.0876 41.8966 15.2607C43.3949 16.1359 44.7492 13.7661 43.2509 12.891C39.5529 10.7179 35.8454 8.54476 32.1475 6.37167C28.7666 4.3854 25.3472 1.93697 21.6013 0.717678C14.9354 -1.43575 7.82777 1.39616 3.72645 7.01081C1.71902 9.78372 0.499189 13.0975 0.105386 16.5095C-0.355652 20.5312 0.681683 24.2481 2.46821 27.8077C4.03381 30.9247 6.18532 33.8451 9.33575 35.4086C12.3037 36.8737 15.6174 37.1785 18.8447 36.6672C23.1477 35.9887 27.0953 33.8255 30.8509 31.672C35.0578 29.2531 39.2552 26.8145 43.4526 24.3759C44.9509 23.5106 43.6062 21.1409 42.0983 22.0062Z" fill="black"/>
<path d="M16.348 6.77528C13.0823 6.93261 9.9511 8.46656 7.90524 11.1116C6.89672 12.4194 6.17635 13.9534 5.85939 15.5758C5.70571 16.3723 5.61926 17.1884 5.64808 17.9948C5.67689 18.9682 6.03228 19.9712 5.84018 20.9348C5.66729 21.8001 6.96396 22.164 7.12724 21.2987C7.29053 20.4333 7.17527 19.7155 7.06001 18.8896C6.94475 18.0636 6.94475 17.3163 7.0504 16.5395C7.2425 15.0055 7.8188 13.5404 8.70246 12.2818C10.4602 9.77435 13.3609 8.2699 16.348 8.13224C17.2028 8.0929 17.2124 6.71628 16.348 6.76545V6.77528Z" fill="black"/>
<path d="M60.9528 13.078L60.9144 13.0386C60.5974 12.6846 60.0499 12.5568 59.6081 12.6846C58.6284 12.9796 57.812 14.1694 57.3317 15.0347C56.8515 15.9 56.4865 16.962 56.3232 18.0043C55.9678 20.2856 56.2944 22.8323 58.0521 24.4646C58.59 24.9661 59.416 25.0054 59.9443 24.4646C60.4341 23.9631 60.4821 23.029 59.9443 22.5275C58.9549 21.613 58.686 20.0889 58.9165 18.6533C59.1567 17.1292 59.6849 15.9295 60.8279 15.0052L60.2324 15.3592L60.2996 15.3396L58.9934 14.9856L59.0318 15.0249C59.5216 15.5657 60.4341 15.5362 60.924 15.0249C61.4522 14.4841 61.4138 13.6286 60.924 13.0878L60.9528 13.078Z" fill="black"/>
<path d="M60.9822 20.217C62.7015 20.217 62.7111 17.4736 60.9822 17.4736C59.2533 17.4736 59.2533 20.217 60.9822 20.217Z" fill="black"/>
<path d="M32.7725 80.3261C33.2335 84.7411 34.6358 88.9988 37.0082 92.7255C38.1128 94.466 39.4191 96.1081 41.2344 97.1111C42.8769 98.0157 44.7306 98.3893 46.5748 98.5368C51.2524 98.9203 56.0741 98.4582 60.7709 98.3402C62.01 98.3107 63.249 98.2812 64.488 98.2419C65.4197 98.2222 66.457 98.3008 67.3407 97.937C69.06 97.229 70.5968 95.3018 71.7686 93.8956C74.6885 90.3754 77.7044 85.3704 77.2434 80.5719C77.157 79.6968 75.8219 79.6968 75.9083 80.5719C76.2925 84.5838 74.0065 88.694 71.711 91.8012C70.5584 93.3647 69.2233 94.8298 67.7345 96.0687C66.2457 97.3077 63.5756 96.8947 61.7026 96.9439C57.4956 97.052 53.279 97.2487 49.0625 97.2487C44.8459 97.2487 41.3689 96.5506 38.862 93.0598C36.2014 89.3528 34.5974 84.8788 34.1172 80.3162C34.0211 79.4509 32.686 79.4411 32.7821 80.3162L32.7725 80.3261Z" fill="black"/>
<path d="M35.6244 63.7375C37.1804 63.177 38.4674 62.2036 39.8506 61.3186C41.2337 60.4336 42.7993 59.8043 44.4513 59.5487C48.2165 58.9587 51.2901 60.5123 54.4405 62.3904C57.2932 64.0817 60.5204 65.3305 63.863 65.3206C67.2055 65.3108 69.6643 63.2655 72.0368 61.3186C72.7091 60.768 71.7582 59.8043 71.0859 60.3451C69.7892 61.4071 68.4445 62.4887 66.9269 63.2065C65.1788 64.0325 63.4499 64.0227 61.577 63.6884C59.704 63.354 58.1288 62.8821 56.5152 62.0168C55.084 61.2498 53.7393 60.3255 52.289 59.588C49.6092 58.2212 46.6509 57.7296 43.6925 58.2999C42.2806 58.5752 40.9167 59.0963 39.6681 59.8338C38.1889 60.709 36.8826 61.8398 35.2594 62.4199C34.4526 62.7051 34.7984 64.0325 35.6148 63.7375H35.6244Z" fill="black"/>
<path d="M100.294 24.1399C100.631 24.1399 100.64 23.5991 100.294 23.5991C99.9487 23.5991 99.9487 24.1399 100.294 24.1399Z" fill="#00FF00"/>
<path d="M70.2701 15.9099C72.4024 15.2413 74.5347 14.5628 76.6766 13.8942L79.9423 12.8715C80.8259 12.5962 81.796 12.3602 82.4684 11.6719C83.0447 11.0918 83.3712 10.2265 83.208 9.40048C83.0639 8.64334 82.4684 7.96486 81.7384 7.77803C80.8067 7.5322 79.9711 8.13202 79.2507 8.65317C78.3671 9.29232 77.4834 9.93146 76.6094 10.5608C75.6777 11.2393 74.746 11.9276 73.8816 12.6847C73.0171 13.4419 72.2775 14.4153 71.2786 15.0053C70.9809 15.1823 71.2498 15.6444 71.5475 15.4773C72.3159 15.025 72.9115 14.3367 73.555 13.7172C74.2561 13.0387 75.0053 12.4291 75.7737 11.8489C76.5421 11.2688 77.3682 10.6788 78.1654 10.1085C78.9145 9.56764 79.6637 8.90883 80.4898 8.49584C81.2678 8.10252 82.1226 8.28935 82.5452 9.10549C82.9294 9.86263 82.6317 10.7771 82.065 11.3376C81.4118 11.9767 80.4033 12.1734 79.5581 12.4389L76.6574 13.3534C74.4867 14.0417 72.3063 14.7201 70.1356 15.4085C69.809 15.5068 69.9531 16.0378 70.2797 15.9296L70.2701 15.9099Z" fill="black"/>
<path d="M74.4094 12.5862C74.4094 12.5862 74.4094 12.6255 74.4094 12.6452V12.5763C74.4094 12.6747 74.3806 12.773 74.3422 12.8713L74.371 12.8025C74.3326 12.9008 74.275 12.9893 74.2173 13.0778L74.2558 13.0188C74.1885 13.1073 74.1213 13.1761 74.0348 13.245L74.0925 13.2056C74.0156 13.2646 73.9292 13.3236 73.8331 13.363L73.9004 13.3335C73.7563 13.3925 73.6122 13.4318 73.4682 13.481C73.2953 13.5498 73.1224 13.6285 72.9879 13.7661C72.9111 13.8448 72.8822 13.9923 72.9495 14.0906C73.0167 14.1889 73.132 14.2578 73.2472 14.2184C73.4201 14.1594 73.6026 14.1004 73.7755 14.0316L73.4489 13.8448C73.4489 13.8448 73.4489 13.8055 73.4489 13.7858C73.4489 13.7858 73.4489 13.8055 73.4489 13.8153V13.7465C73.4489 13.7465 73.4489 13.776 73.4489 13.7858L73.4778 13.717C73.4778 13.717 73.4586 13.7465 73.4489 13.7661L73.4874 13.7071C73.4393 13.776 73.3625 13.835 73.3049 13.8841L73.3625 13.8448C73.2472 13.9333 73.1224 14.0119 72.9975 14.0709L73.0647 14.0414C73.0647 14.0414 73.0455 14.0414 73.0359 14.0513C72.9687 14.0808 72.9111 14.1103 72.8822 14.1791C72.8534 14.2381 72.8342 14.3266 72.8534 14.3856C72.8726 14.4446 72.9111 14.5134 72.9783 14.5429C73.0455 14.5724 73.1224 14.6019 73.18 14.5724C73.3433 14.5036 73.497 14.4249 73.641 14.3168C73.7179 14.2578 73.7851 14.1988 73.8524 14.1299C73.958 14.0119 74.0156 13.8743 73.9868 13.7071C73.958 13.5695 73.7947 13.4711 73.6603 13.5203C73.4874 13.5793 73.3049 13.6383 73.132 13.7071L73.3913 14.1594C73.3913 14.1594 73.4297 14.1201 73.4489 14.1103L73.3913 14.1496C73.4586 14.1004 73.5354 14.0513 73.6122 14.0218L73.545 14.0513C73.7947 13.9431 74.0637 13.8939 74.2942 13.7465C74.5247 13.599 74.7264 13.3728 74.8417 13.1171C74.9185 12.95 74.9569 12.7828 74.9761 12.6058C74.9761 12.537 74.9473 12.4583 74.8993 12.419C74.8513 12.3797 74.7744 12.3403 74.7168 12.3403C74.6592 12.3403 74.5727 12.3698 74.5343 12.419C74.4959 12.4682 74.4671 12.537 74.4575 12.6058L74.4094 12.5862Z" fill="black"/>
<path d="M74.1117 12.5372C73.7371 12.7142 73.4009 12.9502 73.0551 13.1862C72.7094 13.4222 72.3924 13.6484 72.0562 13.8647C71.3743 14.3072 70.6635 14.7201 69.9239 15.0643C69.7895 15.1233 69.7606 15.32 69.8279 15.438C69.9047 15.5756 70.0584 15.5953 70.1929 15.5363C70.9324 15.1921 71.6432 14.7791 72.3252 14.3367C72.6613 14.1203 72.9975 13.8843 73.3241 13.6582C73.6506 13.432 74.006 13.1862 74.3806 13.0092C74.5151 12.9502 74.5439 12.7535 74.4767 12.6355C74.3998 12.4979 74.2462 12.4782 74.1117 12.5372Z" fill="black"/>
<path d="M71.3747 15.3103C71.5956 15.1726 71.8262 15.0448 72.0471 14.9169C72.268 14.7891 72.4793 14.6809 72.7194 14.6219C72.9595 14.5629 73.1997 14.5433 73.4302 14.4744C73.6703 14.4056 73.9104 14.2974 74.1313 14.1795C74.3523 14.0615 74.5732 14.0221 74.8229 13.9631C75.0726 13.9041 75.2839 13.8451 75.5049 13.7665C75.9947 13.5895 76.4557 13.3436 76.9168 13.1077C77.2241 12.9503 76.9552 12.4783 76.6478 12.6357C76.1964 12.8717 75.745 13.1077 75.2647 13.2748C74.7845 13.442 74.3042 13.4715 73.8624 13.7075C73.6511 13.8156 73.4302 13.914 73.1901 13.973C72.9499 14.032 72.7098 14.0516 72.4793 14.1205C71.999 14.268 71.538 14.5728 71.1058 14.8284C70.8176 15.0054 71.077 15.4774 71.3747 15.3004V15.3103Z" fill="black"/>
<path d="M75.1103 13.2651C75.1103 13.2651 75.1103 13.3143 75.1103 13.3438C75.1199 13.3241 75.1295 13.3143 75.1391 13.2946C75.1583 13.2651 75.1583 13.2651 75.1487 13.2749C75.1583 13.2553 75.1679 13.2454 75.1871 13.2258C75.2352 13.1668 75.2928 13.1078 75.3408 13.0586C75.4465 12.9603 75.5233 12.9013 75.6578 12.8226C75.9171 12.6653 76.1861 12.5473 76.4358 12.4391L76.1764 11.9868C75.8211 12.3605 75.3408 12.5669 74.8414 12.5571L75.1103 12.8324C75.1103 12.9013 75.1295 12.7538 75.1103 12.8128C75.1103 12.8029 75.1679 12.7243 75.1391 12.7538C75.1583 12.7341 75.1775 12.7144 75.1967 12.6948C75.2063 12.6849 75.2256 12.6653 75.2352 12.6554C75.216 12.6653 75.2256 12.6653 75.2448 12.6554C75.36 12.5768 75.4945 12.5178 75.6194 12.4686C75.9171 12.3605 76.2341 12.2916 76.5414 12.2523C76.8296 12.213 77.1658 12.1736 77.4731 12.154C77.8093 12.1245 78.1455 12.1245 78.472 12.2228L78.3184 11.8196C78.2799 11.8786 78.2511 11.9376 78.2031 11.9966C78.1839 12.0261 78.1647 12.0556 78.1455 12.0851C78.1743 12.0458 78.1166 12.1245 78.107 12.1343C78.0206 12.2425 77.9245 12.3408 77.8189 12.4391C77.7901 12.4588 77.7613 12.4883 77.7421 12.5079C77.7805 12.4784 77.7036 12.5374 77.694 12.5473C77.6364 12.5866 77.5788 12.6259 77.5211 12.6653C77.4059 12.7439 77.281 12.8029 77.1465 12.8619C77.185 12.8423 77.0985 12.8816 77.0889 12.8816C77.0601 12.8914 77.0217 12.9111 76.9929 12.9209C76.9256 12.9406 76.8584 12.9701 76.7912 12.9898C76.7239 13.0094 76.6567 13.0291 76.5895 13.0389C76.551 13.0389 76.5222 13.0488 76.4838 13.0586C76.4838 13.0586 76.3781 13.0783 76.4262 13.0684C76.2821 13.0881 76.1476 13.0979 76.0036 13.0979C75.9363 13.0979 75.8595 13.0979 75.7922 13.0979C75.7538 13.0979 75.725 13.0979 75.6866 13.0979C75.6866 13.0979 75.5713 13.0881 75.629 13.0979L75.8115 13.4323C75.8211 13.3831 75.8403 13.3339 75.8595 13.2848C75.8595 13.2651 75.8595 13.3044 75.8691 13.2553C75.8787 13.2258 75.8883 13.2061 75.9075 13.1766C75.9267 13.1373 75.9555 13.0979 75.9747 13.0586C76.0036 13.0094 75.994 13.0193 76.0324 12.9799C76.1668 12.8226 76.2821 12.7341 76.4646 12.6259C76.8584 12.3998 77.3386 12.331 77.7805 12.2523L77.5211 11.8C77.2042 12.154 76.8584 12.4195 76.4262 12.6358C76.042 12.8226 75.5617 12.9603 75.1487 12.9898L75.2832 13.4913C75.8691 13.2061 76.4838 12.9799 77.1177 12.8128L76.8584 12.3605C76.6279 12.5964 76.3397 12.7636 76.0324 12.8619L76.3589 13.1963L76.3878 13.0684C76.4262 12.9308 76.3397 12.7734 76.2053 12.7341C76.0708 12.6948 75.9171 12.7833 75.8787 12.9209L75.8499 13.0488C75.8019 13.2454 75.9747 13.4421 76.1764 13.3831C76.5702 13.2553 76.9352 13.0389 77.233 12.7439C77.4251 12.5571 77.233 12.2228 76.9737 12.2916C76.3013 12.4784 75.6482 12.7243 75.0142 13.0291C74.7837 13.1471 74.8894 13.5502 75.1487 13.5306C76.1957 13.4519 77.185 12.9701 77.8957 12.1835C77.9726 12.095 78.0014 11.9573 77.9342 11.859C77.8669 11.7606 77.7517 11.7115 77.6364 11.7311C77.1273 11.8196 76.5991 11.9081 76.1476 12.1835C75.7442 12.4293 75.4177 12.8029 75.3024 13.2749C75.2736 13.4028 75.3408 13.5896 75.4849 13.6092C76.4742 13.7567 77.5211 13.4814 78.2703 12.7833C78.472 12.5866 78.6545 12.3605 78.789 12.1146C78.8754 11.9671 78.789 11.7606 78.6353 11.7115C78.0494 11.5443 77.4347 11.623 76.8392 11.6918C76.2437 11.7606 75.677 11.8491 75.1583 12.1146C74.8702 12.2621 74.63 12.5079 74.6108 12.8521C74.6012 12.9996 74.7357 13.1176 74.8798 13.1274C75.5137 13.1373 76.1476 12.8718 76.5895 12.3998C76.6663 12.3113 76.6951 12.1736 76.6279 12.0753C76.5702 11.977 76.4358 11.9081 76.3301 11.9475C75.9843 12.095 75.6386 12.2326 75.3312 12.4489C75.1775 12.5571 75.0335 12.6653 74.9086 12.8029C74.7645 12.9603 74.5628 13.1963 74.6493 13.4323C74.6973 13.5699 74.8317 13.6584 74.9758 13.6191C75.1007 13.5797 75.2159 13.4224 75.1583 13.2848L75.1103 13.2651Z" fill="black"/>
<path d="M81.9399 8.45627C81.3348 8.24978 80.7297 8.5251 80.1822 8.78076C79.6347 9.03642 79.1161 9.30191 78.6262 9.6264C78.1364 9.95089 77.7233 10.3934 77.1951 10.6785C76.7052 10.944 76.1673 11.121 75.7159 11.4553C75.4758 11.6323 75.6103 12.0158 75.9176 11.947C76.5419 11.8192 77.1662 11.6717 77.7522 11.416C78.0595 11.2882 78.3477 11.1309 78.6166 10.944C78.8855 10.7572 79.1353 10.5212 79.4042 10.3245C79.9325 9.95089 80.5184 9.6854 81.0659 9.35108C81.1907 9.27241 81.306 9.19375 81.4212 9.11508C81.5557 9.02659 81.7382 8.91842 81.8151 8.78076C81.9975 8.47594 81.6614 8.21044 81.4212 8.10228C80.7393 7.80729 80.115 8.28911 79.6443 8.74143C79.4234 8.95775 79.702 9.31174 79.9613 9.16425C80.2398 9.00692 80.5088 8.82992 80.7969 8.68243C80.9026 8.62343 81.0274 8.65293 81.1427 8.6726C81.2964 8.69226 81.4405 8.7021 81.5941 8.73159C81.7286 8.76109 81.8535 8.82009 81.9879 8.83976C82.0168 8.83976 81.9495 8.81026 81.9591 8.80043C81.9591 8.80043 81.9591 8.85942 81.9495 8.86926C81.9399 8.91842 81.9111 8.97742 81.8727 9.01675C81.7286 9.21341 81.4981 9.33141 81.2964 9.45924C80.2398 10.0886 79.1545 10.6687 78.0403 11.1899C77.4064 11.4848 76.7628 11.7602 76.1097 12.0158C75.7927 12.1437 75.9176 12.596 76.2538 12.537C76.5515 12.4878 76.8397 12.3403 77.1182 12.2027C77.3968 12.065 77.6657 11.9077 77.925 11.7503C78.4533 11.4258 78.9624 11.0719 79.5003 10.7474C80.0381 10.4229 80.576 10.1967 81.1139 9.91156C81.3828 9.76406 81.6326 9.5969 81.8631 9.41007C81.9399 9.34124 82.0264 9.24291 82.132 9.22325C82.1704 9.22325 82.1416 9.20358 82.1416 9.23308C82.1416 9.27241 82.1224 9.32158 82.1032 9.36091C81.8727 9.81323 81.2772 10.0394 80.8449 10.2262C80.2206 10.4917 79.6059 10.7572 78.9816 11.0227C78.6742 11.1505 78.3669 11.2783 78.0691 11.4258C77.8194 11.5438 77.512 11.6717 77.4256 11.9667C77.3295 12.301 77.6369 12.4976 77.925 12.4485C78.2324 12.3895 78.5206 12.2518 78.7991 12.1142C79.4618 11.77 80.1054 11.357 80.7489 10.9637C81.3924 10.5704 82.036 10.1476 82.6795 9.72473L82.2857 9.48874C82.2377 9.97056 81.8054 10.2754 81.4212 10.472C80.9314 10.708 80.4031 10.8752 79.9037 11.0915C78.8567 11.534 77.829 12.0355 76.8397 12.596C76.59 12.7336 76.7244 13.0778 76.9742 13.0975C77.5024 13.1466 77.9827 12.891 78.4341 12.655C78.8855 12.419 79.4042 12.2715 79.9133 12.124C80.4511 11.9667 80.9314 11.7503 81.3636 11.3963C81.7958 11.0424 82.2473 10.6097 82.6795 10.2065L82.2377 9.94106C82.0456 10.8949 81.1235 11.3767 80.3455 11.77C79.4618 12.2125 78.5109 12.5665 77.512 12.6255L77.6465 13.127C78.4821 12.7238 79.3274 12.3305 80.163 11.9273C80.9506 11.5537 81.7862 11.2193 82.4874 10.6982L82.1224 10.3245C81.9783 10.6687 81.767 10.9637 81.4789 11.2095C81.258 11.3963 81.4981 11.711 81.7382 11.6618C82.0552 11.593 82.3241 11.3963 82.5066 11.121C82.6987 10.8359 82.2377 10.5605 82.0456 10.8457C81.9399 11.003 81.7766 11.1014 81.5941 11.1407L81.8535 11.593C82.1704 11.3275 82.4202 10.9834 82.5835 10.5999C82.6315 10.4917 82.6315 10.3639 82.545 10.2754C82.4682 10.1967 82.3145 10.1672 82.2281 10.236C81.5269 10.7572 80.6913 11.0915 79.9037 11.4652C79.068 11.8683 78.2228 12.2617 77.3872 12.6648C77.147 12.773 77.2623 13.186 77.5216 13.1663C78.6358 13.0975 79.6827 12.7041 80.6721 12.2125C81.5653 11.77 82.5354 11.1604 82.7467 10.0886C82.8044 9.82306 82.5066 9.64607 82.3049 9.82306C81.8823 10.2065 81.4693 10.6097 81.0371 10.9735C80.6432 11.3078 80.2014 11.475 79.7212 11.6127C79.2409 11.7503 78.7703 11.8782 78.3188 12.1043C77.8674 12.3305 77.4736 12.596 76.9742 12.5566L77.1086 13.0581C78.1748 12.4583 79.2697 11.9273 80.3935 11.4652C81.3444 11.0719 82.6987 10.7474 82.8236 9.48874C82.8428 9.28224 82.5834 9.14458 82.4298 9.25274C81.671 9.76406 80.893 10.2557 80.115 10.7277C79.7308 10.9637 79.3466 11.1899 78.9624 11.4062C78.7799 11.5143 78.5878 11.6225 78.3957 11.711C78.3092 11.7503 78.2132 11.7897 78.1267 11.829C78.0691 11.8487 78.0115 11.8683 77.9539 11.8782L77.8962 11.8978C77.8002 11.8978 77.8194 11.9273 77.9346 11.9667L77.9731 12.1043C77.9731 12.1043 77.9346 12.1338 77.9923 12.0847C78.0307 12.0552 78.0787 12.0355 78.1171 12.0158C78.2132 11.9667 78.2996 11.9175 78.3957 11.8683C78.6262 11.7602 78.8567 11.6618 79.0872 11.5635C79.5483 11.3668 80.0093 11.1702 80.4704 10.9735C81.1907 10.6687 82.1512 10.3835 82.5738 9.64607C82.7755 9.30191 82.7371 8.77093 82.2761 8.68243C82.0648 8.6431 81.8727 8.72176 81.7094 8.84959C81.5269 8.98725 81.3636 9.13475 81.1715 9.25274C80.7969 9.48874 80.3935 9.66573 79.9901 9.86239C79.5867 10.0591 79.2025 10.2852 78.8279 10.531C78.3957 10.8064 77.9731 11.0915 77.5312 11.357C77.0894 11.6225 76.638 11.9077 76.1385 11.9962L76.2826 12.5173C77.6273 11.9863 78.9528 11.3767 80.2302 10.6884C80.5472 10.5212 80.8546 10.3442 81.1619 10.1672C81.4501 10.0001 81.7574 9.84273 82.0168 9.63623C82.2473 9.44941 82.449 9.21341 82.497 8.90859C82.5546 8.51527 82.2953 8.33827 81.9591 8.24978C81.767 8.20061 81.5749 8.17111 81.3732 8.14161C81.2003 8.12195 81.0082 8.08261 80.8353 8.10228C80.6336 8.12195 80.4511 8.25961 80.2783 8.35794C80.0862 8.4661 79.9037 8.57427 79.7116 8.68243L80.0285 9.10525C80.2494 8.89876 80.48 8.66276 80.7681 8.57427C80.8738 8.54477 80.9794 8.5251 81.0851 8.54477C81.1427 8.54477 81.2003 8.57427 81.258 8.59393C81.2772 8.60377 81.306 8.62343 81.3252 8.63326C81.3444 8.6431 81.3636 8.69226 81.354 8.65293L81.3828 8.44644C81.3444 8.5251 81.1907 8.60377 81.1139 8.66276C81.0082 8.74143 80.893 8.81026 80.7777 8.87909C80.5472 9.01675 80.3167 9.14458 80.0766 9.27241C79.5963 9.5379 79.1449 9.81323 78.7223 10.1574C78.2996 10.5015 77.8578 10.7867 77.3391 10.9735C76.8205 11.1604 76.3018 11.2882 75.7735 11.3963L75.9752 11.888C76.3979 11.5733 76.8973 11.3963 77.3584 11.1604C77.877 10.9047 78.2708 10.4917 78.7415 10.1574C79.2121 9.82306 79.702 9.5674 80.2014 9.32158C80.6817 9.08558 81.2484 8.75126 81.7958 8.93809C82.1224 9.04625 82.2569 8.5251 81.9399 8.41694V8.45627Z" fill="black"/>
<path d="M70.6252 19.9216C72.8439 20.2265 75.0531 20.5215 77.2718 20.8263L80.5951 21.2786C81.5652 21.4064 82.593 21.6228 83.5246 21.2196C84.9077 20.6198 85.6281 18.7319 84.4467 17.5421C83.8032 16.9029 82.8907 16.9521 82.0743 17.0897C80.9793 17.2766 79.894 17.5027 78.8086 17.7092C77.6272 17.9354 76.4362 18.1714 75.274 18.4959C74.1118 18.8203 73.0552 19.4103 71.893 19.5283C71.5569 19.5578 71.5569 20.1085 71.893 20.0691C72.8151 19.9806 73.6507 19.5972 74.5248 19.3022C75.3988 19.0072 76.3689 18.7614 77.3102 18.5647C78.2515 18.368 79.2312 18.1812 80.1917 18.0042C80.672 17.9157 81.1618 17.8174 81.6421 17.7289C82.1223 17.6404 82.6122 17.5126 83.1116 17.5421C83.9184 17.5814 84.5043 18.1812 84.5236 19.017C84.5428 19.8528 83.928 20.5215 83.2077 20.7771C82.324 21.1016 81.2963 20.8361 80.3934 20.7181L77.4159 20.315L70.6252 19.3907C70.289 19.3415 70.289 19.8921 70.6252 19.9315V19.9216Z" fill="black"/>
<path d="M75.7153 18.6431C75.7153 18.6431 75.6673 18.7218 75.6481 18.7513C75.6289 18.771 75.6385 18.771 75.6577 18.7316C75.6577 18.7316 75.6481 18.7513 75.6385 18.7611C75.6289 18.771 75.6193 18.7906 75.6097 18.8005C75.5808 18.83 75.552 18.8595 75.5136 18.889C75.4944 18.8988 75.4752 18.9185 75.4656 18.9283C75.4944 18.8988 75.504 18.8988 75.4848 18.9185H75.4752C75.4752 18.9185 75.3984 18.9775 75.3695 18.9971C75.3407 19.0168 75.2927 19.0266 75.2639 19.0463C75.3023 19.0266 75.3119 19.0266 75.2831 19.0463C75.2735 19.0463 75.2639 19.0463 75.2543 19.0561C75.2351 19.0561 75.2159 19.066 75.1967 19.0758C75.1582 19.0856 75.1198 19.0955 75.0814 19.1053H75.0622C75.0334 19.1053 75.043 19.1053 75.0814 19.1053C75.0622 19.1053 75.0334 19.1053 75.0142 19.1053C74.9661 19.1053 74.9277 19.1053 74.8797 19.1053C74.7836 19.1053 74.6876 19.0856 74.5915 19.0758C74.3802 19.0463 74.1689 19.0365 73.9672 19.1053C73.8424 19.1545 73.7559 19.2626 73.7751 19.4003C73.7943 19.5379 73.9 19.6166 74.0345 19.6363C74.2169 19.6559 74.3994 19.6756 74.5915 19.6953L74.3322 19.3511C74.3322 19.3511 74.3514 19.3216 74.3514 19.3118C74.3514 19.302 74.4187 19.2626 74.3802 19.2823C74.3226 19.302 74.361 19.2921 74.3802 19.2823C74.3706 19.2823 74.361 19.2823 74.3514 19.2921C74.2842 19.3118 74.2169 19.3315 74.1497 19.3511C74.1209 19.3511 74.0825 19.361 74.0537 19.3708C74.0152 19.3708 74.1209 19.3708 74.0537 19.3708C74.0344 19.3708 74.0248 19.3708 74.0056 19.3708C73.9384 19.3708 73.8712 19.3708 73.7943 19.3708C73.6599 19.3708 73.5254 19.4986 73.5254 19.6461C73.5254 19.7936 73.6406 19.9116 73.7943 19.9214C73.9768 19.9214 74.1689 19.9116 74.3514 19.8624C74.5435 19.8133 74.7836 19.7248 74.8317 19.4986C74.8509 19.4101 74.8317 19.3315 74.7836 19.2626C74.7356 19.1938 74.6588 19.1643 74.5723 19.1545C74.3898 19.1348 74.2073 19.1151 74.0152 19.0955L74.0825 19.6264C74.0825 19.6264 74.1305 19.6068 74.1593 19.6068C74.1689 19.6068 74.1881 19.6068 74.1977 19.6068C74.2265 19.6068 74.2266 19.6068 74.1785 19.6068C74.1977 19.6068 74.2362 19.6068 74.2554 19.6068C74.2842 19.6068 74.3034 19.6068 74.3322 19.6068C74.4379 19.6068 74.5339 19.6264 74.6396 19.6363C74.8509 19.6658 75.043 19.6658 75.2543 19.6166C75.6385 19.5281 75.9843 19.2626 76.1764 18.9086C76.2436 18.7808 76.2052 18.6038 76.0803 18.535C75.9554 18.4661 75.7922 18.5055 75.7153 18.6333V18.6431Z" fill="black"/>
<path d="M75.4757 18.4957C74.6593 18.4957 73.8525 18.712 73.0553 18.8202C72.258 18.9283 71.4512 19.007 70.6444 18.9972C70.3082 18.9972 70.2986 19.538 70.6444 19.538C71.4704 19.538 72.2869 19.4691 73.1033 19.3511C73.5067 19.2921 73.9101 19.2331 74.3135 19.1545C74.7169 19.0758 75.0819 19.0267 75.4757 19.0267C75.8119 19.0267 75.8215 18.4858 75.4757 18.4858V18.4957Z" fill="black"/>
<path d="M71.8069 19.8431C72.0758 19.8136 72.3447 19.794 72.6137 19.7743C72.8442 19.7645 73.0843 19.7448 73.3148 19.7842C73.5454 19.8235 73.7855 19.912 74.016 19.9513C74.2657 19.9906 74.5155 20.0005 74.7748 19.9906C75.0053 19.9808 75.207 20.0201 75.4375 20.0693C75.6969 20.1283 75.9562 20.1775 76.2251 20.1971C76.7342 20.2463 77.2433 20.2266 77.7523 20.1971C78.0885 20.1873 78.0981 19.6465 77.7523 19.6563C77.2433 19.676 76.7342 19.6957 76.2251 19.6563C75.7161 19.617 75.2743 19.4203 74.7748 19.4498C74.5443 19.4597 74.3042 19.4498 74.0736 19.4105C73.8335 19.3613 73.5934 19.2827 73.3437 19.2433C72.8442 19.1647 72.3063 19.2433 71.7973 19.2925C71.6532 19.3122 71.5283 19.4105 71.5283 19.5678C71.5283 19.7055 71.6532 19.853 71.7973 19.8431H71.8069Z" fill="black"/>
<path d="M76.062 19.538C76.062 19.538 76.0524 19.6167 76.0235 19.6462C76.0428 19.6363 76.062 19.6265 76.0812 19.6167C76.11 19.597 76.1388 19.5872 76.1676 19.5675C76.2156 19.5478 76.2829 19.5183 76.3405 19.4987C76.4654 19.4593 76.6094 19.4298 76.7247 19.42C77.0225 19.3905 77.3298 19.4003 77.6276 19.42L77.5603 18.889C77.0897 19.0758 76.571 19.0857 76.1196 18.8595L76.2156 19.2332C76.2156 19.2332 76.2348 19.2037 76.2445 19.184C76.2252 19.2037 76.2348 19.2037 76.2445 19.184C76.2637 19.1643 76.2733 19.1643 76.2445 19.184C76.2541 19.184 76.2637 19.1742 76.2733 19.1643C76.3117 19.1447 76.3405 19.1348 76.4077 19.1152C76.4173 19.1152 76.5038 19.0955 76.4558 19.1053C76.4942 19.1053 76.5326 19.1053 76.5614 19.1053C76.6479 19.1053 76.7343 19.1053 76.8208 19.1053C77.1473 19.125 77.4739 19.2135 77.7909 19.3118C78.1078 19.4102 78.4152 19.5183 78.7225 19.6363C78.9915 19.7445 79.2796 19.8821 79.5005 20.0788L79.5582 19.656C79.4429 19.7445 79.318 19.8133 79.1932 19.8821C79.0875 19.9313 78.9723 19.9805 78.8378 20.0198C78.5689 20.0985 78.3479 20.1181 78.0694 20.1181C77.5315 20.1083 77.0128 19.9411 76.5518 19.6363L76.6094 20.0591C76.7343 19.9018 76.84 19.8133 77.0129 19.7248C77.0417 19.715 77.0705 19.6953 77.1185 19.6855C77.1665 19.6757 77.2146 19.656 77.2626 19.6462C77.3586 19.6167 77.4259 19.6068 77.5027 19.6068C77.9637 19.5675 78.4152 19.6953 78.857 19.8231V19.302C77.9926 19.6757 77.0321 19.6953 76.1484 19.361L76.0812 19.892C76.7343 19.892 77.3778 19.9313 78.0214 20.0493V19.5282C77.6948 19.6462 77.3586 19.6855 77.0032 19.6363L77.1857 20.0985L77.2722 19.9903C77.3586 19.8723 77.3778 19.715 77.2722 19.6068C77.1761 19.5085 76.984 19.4888 76.8976 19.6068L76.8111 19.715C76.6575 19.9116 76.7631 20.1476 76.9936 20.1771C77.3778 20.2263 77.7812 20.1771 78.1462 20.0493C78.2615 20.01 78.3383 19.9116 78.3383 19.7838C78.3383 19.6757 78.2615 19.538 78.1462 19.5183C77.4547 19.4003 76.7631 19.3413 76.062 19.3413C75.9275 19.3413 75.8218 19.4397 75.8026 19.5773C75.7834 19.715 75.8699 19.8231 75.9947 19.8723C76.9456 20.2361 78.0406 20.2165 78.9819 19.8133C79.0875 19.7641 79.174 19.6855 79.174 19.5478C79.174 19.4298 79.0875 19.3217 78.9819 19.2823C78.4824 19.1447 77.9541 18.9972 77.4259 19.0562C76.9648 19.1053 76.5038 19.2922 76.2156 19.6658C76.11 19.8035 76.11 19.9903 76.2733 20.0886C77.3202 20.777 78.7898 20.8851 79.8271 20.1181C79.952 20.0296 80.0192 19.8133 79.8847 19.6953C79.5966 19.4397 79.2604 19.2725 78.905 19.1348C78.5496 18.9972 78.1943 18.8693 77.8389 18.7612C77.4547 18.6432 77.0513 18.5547 76.6479 18.5547C76.3117 18.5547 75.9179 18.6334 75.745 18.9677C75.6778 19.0857 75.7066 19.2725 75.841 19.3413C76.4173 19.6265 77.0897 19.6658 77.6948 19.4298C77.8197 19.3807 77.9061 19.2725 77.8869 19.1348C77.8677 18.9972 77.762 18.9087 77.6276 18.8988C77.253 18.8792 76.8688 18.8792 76.4942 18.9382C76.3021 18.9677 76.1292 19.0267 75.9563 19.1053C75.745 19.1938 75.5529 19.3217 75.5337 19.5773C75.5241 19.7248 75.6586 19.8526 75.8026 19.8526C75.9563 19.8526 76.062 19.7248 76.0716 19.5773L76.062 19.538Z" fill="black"/>
<path d="M84.2448 18.1419C83.8702 17.7781 83.3612 17.6896 82.8617 17.6699C82.2566 17.6503 81.6323 17.6699 81.0272 17.7388C80.7198 17.7781 80.4125 17.8273 80.1147 17.9059C79.817 17.9846 79.5192 18.0829 79.2022 18.1124C78.5683 18.1714 77.9344 18.0731 77.3101 18.2009C77.0507 18.2501 77.0603 18.6631 77.3101 18.7221C77.9632 18.8794 78.6355 19.0171 79.3079 19.0367C79.6441 19.0367 79.9802 19.0171 80.3068 18.9482C80.6334 18.8794 80.9311 18.7811 81.2577 18.7319C81.9012 18.6237 82.5544 18.6434 83.1979 18.5549C83.3516 18.5352 83.5053 18.5156 83.6493 18.4762C83.7934 18.4467 83.9567 18.4271 84.0527 18.3091C84.2544 18.0928 84.0527 17.7388 83.8894 17.5618C83.39 17.0308 82.6504 17.198 82.0453 17.4044C81.7764 17.4929 81.8052 17.9649 82.1125 17.9354C82.4199 17.9059 82.7273 17.8764 83.0442 17.8568C83.2939 17.8371 83.5341 18.0534 83.7358 18.1911C83.8414 18.2698 83.9375 18.3582 84.0431 18.4369C84.0912 18.4762 84.0912 18.4664 84.0816 18.4959C84.0719 18.5352 83.9951 18.5844 83.9567 18.6041C83.7838 18.7122 83.5533 18.7417 83.3516 18.7614C82.1029 18.8892 80.8447 18.9581 79.5864 18.9482C78.8661 18.9482 78.1553 18.9187 77.4445 18.8696C77.1468 18.8499 77.0891 19.3219 77.3773 19.4005C77.9824 19.5677 78.6644 19.4694 79.2791 19.4005C79.8938 19.3317 80.5469 19.2137 81.1809 19.1547C81.8148 19.0957 82.4007 19.1351 83.0058 19.0859C83.3132 19.0564 83.6109 18.9876 83.9183 18.9187C83.9663 18.9089 84.0335 18.8794 84.0816 18.9089C84.1104 18.9286 84.1008 18.9286 84.1008 18.9089C84.12 18.9876 83.8606 19.1056 83.8222 19.1252C83.2939 19.3514 82.6792 19.2727 82.1221 19.2629C81.4786 19.2432 80.8351 19.2236 80.1915 19.1941C79.865 19.1842 79.548 19.1744 79.2214 19.1941C78.9813 19.2137 78.6932 19.2826 78.6163 19.548C78.4242 20.2265 79.6729 20.1282 80.0187 20.1085C81.4882 20.0102 82.9674 19.8135 84.4273 19.5972L84.1296 19.1941C83.8894 19.607 83.4092 19.725 82.9674 19.7349C82.4199 19.7447 81.8724 19.6759 81.3249 19.6464C80.1915 19.5972 79.0582 19.6169 77.9248 19.7054C77.675 19.725 77.5502 20.0692 77.7903 20.2069C78.2513 20.4723 78.7604 20.4625 79.2695 20.4428C79.817 20.4232 80.326 20.492 80.8639 20.5805C81.4018 20.669 81.9589 20.6887 82.5063 20.5412C83.0538 20.3937 83.6109 20.2069 84.1584 20.0299L83.8606 19.6267C83.2939 20.4133 82.1798 20.433 81.3153 20.4428C80.3452 20.4527 79.3751 20.3544 78.4627 19.9905L78.3954 20.5215C79.3175 20.5215 80.2492 20.5215 81.1713 20.5117C82.0933 20.5018 82.977 20.5608 83.851 20.374L83.5917 19.9217C83.3324 20.1577 83.0346 20.3249 82.6984 20.4133C82.4583 20.4822 82.4391 20.8755 82.6984 20.9345C83.025 21.0033 83.342 20.964 83.6205 20.787C83.8991 20.61 83.6493 20.138 83.3516 20.315C83.1883 20.4133 83.0154 20.4527 82.8329 20.4133V20.9345C83.2555 20.8165 83.6301 20.6002 83.9567 20.3052C84.168 20.1085 83.9375 19.8037 83.6974 19.8529C82.8425 20.0299 81.9492 19.961 81.0848 19.9709C80.2204 19.9807 79.2791 19.9709 78.3762 19.9807C78.0592 19.9807 78.04 20.4035 78.309 20.5117C79.3175 20.9148 80.4125 21.0033 81.4882 20.9738C82.564 20.9443 83.6397 20.8067 84.3025 19.8922C84.4465 19.6955 84.2064 19.43 84.0047 19.489C83.4956 19.6464 82.9866 19.8135 82.4775 19.961C81.9685 20.1085 81.4594 20.1085 80.9311 20.02C80.4029 19.9315 79.9226 19.8529 79.4039 19.8627C78.9525 19.8824 78.453 19.9512 78.04 19.7054L77.9056 20.2069C79.1254 20.1184 80.3548 20.0987 81.5843 20.1675C82.5832 20.2167 83.9567 20.492 84.5618 19.43C84.6867 19.2039 84.4754 18.9974 84.264 19.0269C82.9866 19.2236 81.6995 19.3809 80.4029 19.489C80.0859 19.5185 79.7785 19.548 79.4616 19.5284C79.3847 19.5284 79.3079 19.5284 79.231 19.5087C79.2022 19.5087 79.0582 19.4497 79.0293 19.4694C79.0101 19.4792 79.0966 19.7152 79.087 19.7152C79.0966 19.7152 79.135 19.7054 79.1542 19.6955C79.2214 19.6857 79.2983 19.6857 79.3751 19.6857C80.0187 19.666 80.6718 19.7152 81.3153 19.7349C81.9204 19.7545 82.5352 19.8135 83.1403 19.7742C83.6301 19.7447 84.3409 19.6169 84.5714 19.0957C84.6867 18.8302 84.5906 18.5352 84.3505 18.3976C84.0912 18.2501 83.8126 18.3582 83.5341 18.4172C82.9482 18.5647 82.3334 18.5254 81.7379 18.5451C81.0272 18.5647 80.3356 18.6827 79.6345 18.7712C79.2791 18.8204 78.9237 18.8597 78.5683 18.8794C78.2129 18.8991 77.8479 18.9286 77.5118 18.8401L77.4445 19.371C78.9237 19.4694 80.4029 19.4694 81.8724 19.371C82.2374 19.3514 82.612 19.3219 82.977 19.2826C83.2843 19.2531 83.6013 19.2432 83.8991 19.1547C84.1584 19.0761 84.4081 18.9286 84.5522 18.6926C84.7635 18.3287 84.4946 18.0534 84.2256 17.8371C84.0816 17.7191 83.9183 17.6109 83.7646 17.5224C83.6301 17.4339 83.486 17.3356 83.3324 17.2864C83.1499 17.2373 82.9578 17.2668 82.7753 17.2864C82.5544 17.3061 82.3334 17.3258 82.1221 17.3454L82.1894 17.8764C82.4871 17.7781 82.8137 17.6503 83.1211 17.6994C83.3324 17.7289 83.5725 17.8666 83.6109 18.1026V17.9551C83.7454 17.8469 83.7646 17.8174 83.6589 17.8568L83.5917 17.8764C83.5245 17.8961 83.4668 17.9059 83.3996 17.9158C83.2747 17.9354 83.1499 17.9551 83.025 17.9748C82.7657 18.0043 82.5063 18.0141 82.247 18.0338C81.7091 18.0633 81.1809 18.1223 80.6526 18.2501C80.1243 18.3779 79.6152 18.4664 79.0582 18.4271C78.5011 18.3877 77.9728 18.2698 77.4349 18.1419V18.6631C78.0016 18.5451 78.5779 18.6434 79.1542 18.5942C79.7305 18.5451 80.2972 18.3189 80.8831 18.2403C81.469 18.1616 82.0261 18.1518 82.6024 18.1518C83.025 18.1518 83.5341 18.1518 83.8606 18.4664C84.1104 18.7024 84.485 18.3287 84.2352 18.0829L84.2448 18.1419Z" fill="black"/>
<path d="M68.7134 23.5005C70.3462 25.0738 71.9887 26.6569 73.6215 28.2302C74.4475 29.0267 75.2736 29.8231 76.0996 30.6196C76.7719 31.2686 77.4539 32.0159 78.3856 32.2617C79.1924 32.478 80.1241 32.3207 80.7388 31.7012C81.267 31.1703 81.5168 30.2951 81.2671 29.5675C80.9885 28.7513 80.2201 28.3285 79.4901 27.9745C78.5008 27.4927 77.5019 27.0207 76.5126 26.5487C75.4368 26.0374 74.3611 25.5261 73.2469 25.1131C72.1327 24.7001 70.9801 24.5428 69.9908 23.943C69.6931 23.766 69.4337 24.238 69.7219 24.415C70.5095 24.887 71.3932 25.0738 72.2576 25.3393C73.1893 25.6343 74.0825 26.0079 74.9758 26.4111C75.8691 26.8142 76.7431 27.2469 77.6268 27.6697C78.4432 28.063 79.3365 28.3973 80.0856 28.9087C80.7484 29.361 81.0365 30.128 80.6619 30.8851C80.2873 31.6422 79.3653 31.9372 78.5777 31.7406C77.694 31.5242 77.0409 30.7573 76.3973 30.1378L74.1402 27.9647C72.4593 26.3422 70.7784 24.7296 69.0976 23.1072C68.8478 22.8712 68.4733 23.2547 68.723 23.4907L68.7134 23.5005Z" fill="black"/>
<path d="M73.5739 25.5458C73.5739 25.5458 73.5547 25.5556 73.5931 25.5458C73.5835 25.5458 73.5739 25.5458 73.5643 25.5556C73.5451 25.5556 73.5163 25.5753 73.4971 25.5753C73.449 25.5851 73.4106 25.6048 73.3626 25.6048H73.3434C73.3434 25.6048 73.3242 25.6048 73.3626 25.6048H73.2954C73.2473 25.6048 73.1993 25.6048 73.1513 25.6048C73.1321 25.6048 73.1129 25.6048 73.0937 25.6048C73.0745 25.6048 73.0841 25.6048 73.1225 25.6048C73.1129 25.6048 73.1033 25.6048 73.0841 25.6048C73.036 25.6048 72.988 25.5851 72.9496 25.5753C72.9304 25.5753 72.9016 25.5655 72.8824 25.5556C72.8824 25.5556 72.8631 25.5556 72.8535 25.5556C72.8343 25.5556 72.8439 25.5556 72.8728 25.5655C72.8631 25.5655 72.8151 25.536 72.8055 25.536C72.7863 25.5261 72.7671 25.5163 72.7479 25.4966C72.7287 25.477 72.7095 25.4671 72.6903 25.4573C72.6903 25.4573 72.671 25.4475 72.6614 25.4376C72.6422 25.418 72.6422 25.4278 72.6711 25.4475C72.6711 25.4475 72.5846 25.3786 72.5846 25.3688C72.5174 25.3098 72.4597 25.2508 72.3925 25.1918C72.2388 25.0541 72.0755 24.9263 71.8738 24.8673C71.7682 24.8378 71.6241 24.887 71.5761 24.9951C71.5281 25.1033 71.5281 25.241 71.6145 25.3196C71.749 25.4475 71.893 25.5753 72.0275 25.6933V25.3098C72.0275 25.3098 72.0755 25.2803 72.114 25.2705C72.162 25.2508 72.114 25.2705 72.1044 25.2705C72.114 25.2705 72.1716 25.2803 72.1236 25.2705C72.1044 25.2705 72.0948 25.2705 72.0755 25.2606C72.0467 25.2606 72.0179 25.241 71.9795 25.2311C71.9603 25.2311 71.9507 25.2213 71.9315 25.2115C71.893 25.2016 71.9891 25.241 71.9315 25.2115C71.8738 25.182 71.8258 25.1525 71.7682 25.123C71.7394 25.1033 71.7106 25.0935 71.6913 25.0738C71.6817 25.0738 71.6625 25.0541 71.6529 25.0443C71.5953 24.9951 71.6433 25.0345 71.6529 25.0443C71.5953 24.9951 71.5377 24.9656 71.4704 24.9656C71.4032 24.9656 71.3264 24.9951 71.2879 25.0443C71.2015 25.1426 71.1727 25.3393 71.2879 25.4278C71.4512 25.5556 71.6145 25.654 71.8066 25.7326C71.8834 25.7621 71.9603 25.7916 72.0371 25.8113C72.1812 25.8408 72.3157 25.8113 72.4309 25.713C72.5366 25.6245 72.5366 25.418 72.4309 25.3295C72.2965 25.2016 72.1524 25.0738 72.0179 24.9558L71.7586 25.4081C71.7586 25.4081 71.8162 25.4376 71.8258 25.4278C71.7874 25.4081 71.7778 25.4081 71.8066 25.4278C71.8162 25.4278 71.8258 25.4278 71.8354 25.4475C71.8738 25.4671 71.9123 25.4966 71.9507 25.5163C71.9507 25.5163 71.9699 25.5261 71.9795 25.536C71.9507 25.5065 71.9411 25.5065 71.9699 25.5261C71.9891 25.536 72.0083 25.5556 72.0179 25.5655C72.0563 25.595 72.0851 25.6245 72.1236 25.654C72.2676 25.7916 72.4213 25.9391 72.5942 26.0276C73.0072 26.2341 73.4683 26.2439 73.8813 26.0473C74.0061 25.9883 74.0446 25.7916 73.9773 25.6736C73.8909 25.536 73.7468 25.5163 73.6123 25.5753L73.5739 25.5458Z" fill="black"/>
<path d="M73.4779 25.251C73.1513 25.015 72.7959 24.8282 72.4405 24.6512C72.0852 24.4742 71.701 24.2775 71.3456 24.0809C70.6252 23.6876 69.924 23.2647 69.2613 22.7731C69.146 22.6846 68.9636 22.7534 68.8963 22.8714C68.8195 23.0091 68.8771 23.1566 68.9924 23.2451C69.6551 23.7367 70.3563 24.1595 71.0766 24.5529C71.432 24.7495 71.797 24.9265 72.162 25.1133C72.527 25.3002 72.8824 25.4772 73.2089 25.723C73.3242 25.8115 73.5067 25.7427 73.5739 25.6247C73.6508 25.487 73.5931 25.3395 73.4779 25.251Z" fill="black"/>
<path d="M69.7603 24.1892C70.1156 24.3957 70.4806 24.6022 70.7976 24.8578C71.0953 25.0938 71.2971 25.438 71.566 25.6936C71.8349 25.9493 72.1903 26.1165 72.4304 26.4115C72.6706 26.7064 72.9491 26.9916 73.2565 27.2473C73.6118 27.5324 73.9864 27.7979 74.361 28.0536C74.4763 28.1322 74.6588 28.0732 74.726 27.9552C74.8029 27.8274 74.7548 27.6701 74.63 27.5816C73.9864 27.1489 73.3717 26.6966 72.8627 26.0968C72.7282 25.9395 72.5937 25.8018 72.4208 25.6838C72.2768 25.5855 72.1327 25.4871 71.9982 25.3691C71.7101 25.1135 71.5084 24.7693 71.2202 24.5235C70.8552 24.2089 70.4326 23.963 70.0196 23.727C69.7218 23.55 69.4529 24.022 69.7507 24.199L69.7603 24.1892Z" fill="black"/>
<path d="M73.3906 26.4409L73.2849 26.5195C73.2561 26.5195 73.2849 26.5195 73.2945 26.5195C73.3137 26.5195 73.3329 26.5195 73.3521 26.5195C73.3233 26.5195 73.3329 26.5195 73.3521 26.5195C73.429 26.5294 73.4962 26.549 73.573 26.5687C73.6115 26.5785 73.6403 26.5884 73.6787 26.608C73.6979 26.608 73.7171 26.6277 73.7363 26.6277C73.7555 26.6277 73.7651 26.6375 73.7363 26.6277C73.8132 26.6572 73.8804 26.6965 73.9476 26.7359C74.0821 26.8145 74.207 26.8932 74.3318 26.9915C74.3991 27.0407 74.4567 27.08 74.5143 27.1292C74.5143 27.1292 74.5528 27.1587 74.5335 27.1488C74.5143 27.1292 74.5624 27.1685 74.5624 27.1783C74.5912 27.2078 74.6296 27.2275 74.6584 27.257L74.9177 26.8047C74.8505 26.785 74.7833 26.7654 74.7256 26.7457C74.716 26.7457 74.6968 26.7359 74.6872 26.726C74.6872 26.726 74.62 26.6965 74.6584 26.7162C74.6872 26.726 74.6392 26.7162 74.6392 26.7162C74.62 26.7162 74.6008 26.6965 74.5912 26.6867C74.4663 26.6277 74.3511 26.549 74.2454 26.4704C74.2646 26.49 74.2646 26.49 74.2454 26.4704C74.2358 26.4605 74.2262 26.4507 74.207 26.4409C74.1782 26.4212 74.159 26.3917 74.1301 26.372C74.0821 26.3229 74.0341 26.2737 73.9861 26.2245C73.9669 26.195 73.938 26.1754 73.9188 26.1459C73.938 26.1754 73.9188 26.1459 73.9188 26.136C73.9188 26.1262 73.8996 26.1065 73.89 26.0967C73.8516 26.0377 73.8132 25.9689 73.7748 25.9099L73.6787 26.2835C73.6787 26.2835 73.6979 26.2835 73.7171 26.2835C73.6787 26.2835 73.7555 26.2737 73.7171 26.2835C73.7267 26.2835 73.7363 26.2835 73.7555 26.2835C73.7652 26.2835 73.8036 26.2835 73.7555 26.2835C73.7652 26.2835 73.7748 26.2835 73.794 26.2835C73.8324 26.2835 73.8612 26.3032 73.8996 26.313C73.8612 26.2934 73.9284 26.3229 73.938 26.3327C73.9669 26.3425 73.9861 26.3622 74.0149 26.372C74.0725 26.4015 74.1205 26.4409 74.1686 26.4802C74.1782 26.49 74.1974 26.4999 74.207 26.5097C74.2262 26.5294 74.255 26.549 74.2742 26.5687C74.3222 26.608 74.3703 26.6572 74.4183 26.6965C74.5143 26.785 74.6008 26.8834 74.6776 26.9817C74.716 27.0308 74.7545 27.0702 74.7929 27.1193C74.8121 27.139 74.8313 27.1685 74.8505 27.1882C74.8505 27.198 74.8697 27.2078 74.8697 27.2177C74.9177 27.2865 74.8505 27.198 74.8793 27.2373C74.9562 27.3357 75.0234 27.4438 75.1002 27.5422C75.2539 27.7585 75.398 27.965 75.5421 28.1911C75.6189 28.319 75.6861 28.4468 75.7534 28.5746C75.7534 28.5943 75.7726 28.6041 75.7726 28.6238C75.7726 28.6336 75.7918 28.6631 75.7726 28.6238C75.7822 28.6533 75.8014 28.6926 75.811 28.7221C75.8398 28.8008 75.859 28.8696 75.8782 28.9483L76.1376 28.6041C76.0799 28.6041 76.0319 28.6041 75.9743 28.6041C75.9455 28.6041 75.9263 28.6041 75.8974 28.6041C75.8782 28.6041 75.8014 28.5943 75.859 28.6041C75.7534 28.5845 75.6477 28.5648 75.5421 28.5353C75.494 28.5156 75.4364 28.5058 75.3884 28.4861C75.3692 28.4861 75.3404 28.4665 75.3212 28.4566C75.3115 28.4566 75.2923 28.4468 75.2827 28.437C75.2827 28.437 75.2251 28.4075 75.2539 28.4271C75.2443 28.4271 75.2251 28.4173 75.2155 28.4075C75.1963 28.3976 75.1675 28.3878 75.1483 28.378C75.1002 28.3485 75.0426 28.319 74.9946 28.2993C74.8985 28.2403 74.8121 28.1813 74.7256 28.1223C74.7064 28.1125 74.6584 28.0731 74.6968 28.1026C74.6776 28.083 74.6488 28.0633 74.6296 28.0437C74.5912 28.0043 74.5432 27.9748 74.5047 27.9355C74.4279 27.8568 74.3511 27.7782 74.2742 27.6995C74.2358 27.6602 74.207 27.611 74.1686 27.5717C74.1686 27.5717 74.159 27.552 74.1493 27.5422C74.1205 27.5127 74.1782 27.5717 74.1493 27.5422C74.1301 27.5127 74.1109 27.4832 74.0917 27.4635C74.0245 27.3652 73.9573 27.257 73.8996 27.1488C73.8708 27.0898 73.842 27.0407 73.8132 26.9817C73.8036 26.9522 73.7844 26.9227 73.7748 26.903C73.7748 26.8834 73.7555 26.8637 73.7459 26.844L73.5634 27.1783C73.5634 27.1783 73.6211 27.1587 73.6499 27.1587C73.6595 27.1587 73.7459 27.139 73.6883 27.1587C73.7363 27.1587 73.7844 27.1587 73.8324 27.1587C73.8804 27.1587 73.9284 27.1587 73.9765 27.1587C73.9188 27.1587 74.0053 27.1587 74.0149 27.1587C74.0437 27.1587 74.0629 27.1685 74.0917 27.1783C74.1397 27.1882 74.1974 27.2078 74.2454 27.2275C74.2646 27.2275 74.2934 27.2472 74.3126 27.257C74.3703 27.2767 74.2934 27.2472 74.3414 27.2668C74.4375 27.316 74.5335 27.3652 74.6296 27.434C74.6488 27.4537 74.668 27.4635 74.6968 27.4832C74.6968 27.4832 74.7641 27.5323 74.7256 27.5028C74.7737 27.5422 74.8121 27.5717 74.8505 27.611C74.9273 27.6798 75.0042 27.7585 75.081 27.847C75.2347 28.0142 75.3788 28.1911 75.5229 28.3681L75.7822 27.9158C75.6573 27.8863 75.5421 27.8568 75.4268 27.8175C75.3788 27.7978 75.3212 27.7782 75.2731 27.7585C75.2443 27.7487 75.2155 27.7388 75.1867 27.7192C75.1579 27.7093 75.1579 27.7093 75.1867 27.7192C75.1771 27.7192 75.1579 27.7093 75.1483 27.6995C74.937 27.6012 74.7352 27.4832 74.5335 27.3553C74.4855 27.316 74.4279 27.2865 74.3799 27.2472C74.3318 27.2177 74.4087 27.2668 74.3607 27.2275C74.3318 27.2078 74.3126 27.1882 74.2838 27.1685C74.1974 27.0898 74.1109 27.0112 74.0245 26.9325C73.938 26.8539 73.8612 26.7555 73.7844 26.667C73.7651 26.6474 73.7459 26.6179 73.7267 26.5884C73.7075 26.5589 73.7075 26.5687 73.7267 26.5884C73.7267 26.5785 73.7075 26.5589 73.6979 26.549C73.6595 26.4999 73.6211 26.4507 73.5923 26.3917L73.2273 26.7654C73.3617 26.8637 73.4962 26.962 73.6211 27.0603C73.5923 27.0407 73.6403 27.0702 73.6403 27.08C73.6499 27.0898 73.6691 27.0997 73.6787 27.1193C73.7075 27.1488 73.7459 27.1685 73.7748 27.198C73.842 27.257 73.9092 27.3062 73.9765 27.3652C74.2262 27.5815 74.4759 27.8175 74.7064 28.0633L74.9658 27.611C74.9658 27.611 74.8889 27.5913 74.8505 27.5717C74.8313 27.5717 74.8025 27.552 74.7833 27.5422C74.7833 27.5422 74.716 27.5127 74.7449 27.5225C74.7737 27.5323 74.716 27.5127 74.7064 27.5028C74.6872 27.5028 74.668 27.4832 74.6488 27.4733C74.6104 27.4537 74.5624 27.434 74.5239 27.4045C74.4471 27.3652 74.3799 27.316 74.3126 27.2668C74.3126 27.2668 74.2454 27.2177 74.2838 27.2472C74.2646 27.2373 74.255 27.2177 74.2358 27.2078C74.1974 27.1783 74.1686 27.1488 74.1301 27.1095L74.0149 27.5618L74.1397 27.5225C74.2742 27.4832 74.3703 27.3258 74.3222 27.1882C74.2742 27.0505 74.1397 26.962 73.9957 27.0013L73.8708 27.0407C73.6787 27.0898 73.6115 27.3553 73.7555 27.493C74.0533 27.788 74.4183 27.9945 74.8217 28.1125C75.081 28.1911 75.2635 27.847 75.081 27.6602C74.5912 27.1488 74.0533 26.6867 73.4866 26.2835C73.2753 26.1262 72.9775 26.431 73.1216 26.6572C73.7075 27.5422 74.6104 28.1911 75.6285 28.4271C75.7438 28.4566 75.8686 28.4075 75.9263 28.2993C75.9839 28.1813 75.9647 28.0732 75.8878 27.9748C75.5805 27.5913 75.2635 27.198 74.8505 26.9325C74.4375 26.667 73.8996 26.5195 73.4098 26.667C73.2849 26.7064 73.1696 26.8637 73.2273 27.0013C73.5923 27.9552 74.3511 28.7418 75.3116 29.0565C75.5805 29.1449 75.859 29.1843 76.1376 29.1843C76.3105 29.1843 76.4353 29.0073 76.3969 28.8401C76.2528 28.26 75.9071 27.7782 75.5709 27.2963C75.2347 26.8145 74.8793 26.3524 74.4183 26.0082C74.1301 25.7919 73.7748 25.6542 73.429 25.8214C73.2945 25.8902 73.2657 26.0672 73.3329 26.195C73.6403 26.7654 74.1782 27.198 74.7929 27.3553C74.8985 27.3848 75.033 27.3357 75.0906 27.2275C75.1387 27.1292 75.1387 26.9719 75.0522 26.903C74.7545 26.6572 74.4471 26.4114 74.1109 26.2442C73.938 26.1557 73.7555 26.0869 73.573 26.0475C73.477 26.0279 73.3713 26.0082 73.2657 26.0082C73.1216 26.0082 73.0064 26.077 72.9295 26.195C72.8527 26.313 72.9103 26.4999 73.0256 26.5687C73.16 26.6474 73.3041 26.5982 73.3906 26.4704V26.4409Z" fill="black"/>
<path d="M80.816 30.1872C80.7392 29.7643 80.4607 29.4202 80.1437 29.1547C79.7883 28.8597 79.4041 28.5844 79.0199 28.3287C78.6069 28.0534 78.1747 27.7977 77.7137 27.6011C77.2526 27.4044 76.8492 27.2569 76.4554 26.9816C76.0424 26.6866 75.6582 26.3523 75.1972 26.136C74.9282 26.0081 74.6689 26.3228 74.8802 26.5588C75.2836 27.0308 75.7062 27.5027 76.1961 27.8961C76.4362 28.0927 76.6859 28.2599 76.9549 28.4074C77.2622 28.5745 77.5888 28.6827 77.9057 28.8302C78.4724 29.0957 78.9815 29.4792 79.5194 29.7938C79.7883 29.9512 80.0861 30.1282 80.3838 30.2265C80.7584 30.3445 80.9025 29.9217 80.8737 29.6168C80.8064 28.8302 80.0861 28.5057 79.4425 28.2992C79.1544 28.2009 78.9815 28.6434 79.2408 28.7909C79.5098 28.958 79.7883 29.1154 80.0573 29.2924C80.1533 29.3612 80.1917 29.4595 80.2398 29.5677C80.2974 29.7053 80.3646 29.8528 80.4126 30.0003C80.4607 30.1282 80.4703 30.2757 80.5183 30.4035C80.5375 30.4428 80.5087 30.4527 80.5375 30.4232C80.5759 30.374 80.5375 30.4133 80.5183 30.4133C80.4511 30.4133 80.3838 30.4428 80.307 30.433C80.038 30.3937 79.7883 30.2167 79.5578 30.079C78.5205 29.4595 77.5119 28.7909 76.5418 28.0632C75.9944 27.6601 75.4565 27.2274 74.9378 26.7948C74.6689 26.5686 74.3519 26.9029 74.5632 27.1783C74.7553 27.4241 75.0147 27.6011 75.2644 27.7781C75.5141 27.9551 75.7831 28.1222 76.052 28.2697C76.5899 28.5844 77.147 28.8597 77.6848 29.1744C78.2227 29.489 78.6934 29.8725 79.2024 30.197C79.4617 30.3642 79.7307 30.5018 80.0188 30.6198C80.0765 30.6395 80.1341 30.6591 80.1917 30.6886C80.2397 30.7083 80.259 30.7575 80.2974 30.7771C80.2686 30.7181 80.355 30.7575 80.2974 30.7771C80.2782 30.7771 80.2397 30.7968 80.2205 30.7968C79.9708 30.8361 79.6923 30.6985 79.481 30.5805C79.2216 30.433 78.9815 30.2462 78.751 30.0692C78.2131 29.6463 77.6752 29.2137 77.1373 28.7909C76.8876 28.5942 76.6475 28.3976 76.3882 28.2107C76.1672 28.0534 75.9079 27.8567 75.6294 27.9354C75.4949 27.9747 75.3989 28.0731 75.3604 28.2107C75.322 28.3779 75.4085 28.5254 75.5141 28.6434C75.7158 28.8794 75.9655 29.0662 76.2249 29.2334C76.8396 29.6463 77.4927 30.0102 78.1267 30.374C78.7606 30.7378 79.4618 31.1213 80.1437 31.4851V31.0131C79.6923 31.2196 79.1928 30.9541 78.8374 30.6886C78.3956 30.3642 78.0018 29.9905 77.5696 29.6463C76.6859 28.9482 75.7734 28.2894 74.8226 27.6994C74.5824 27.5421 74.3615 27.8371 74.4576 28.0731C74.6593 28.5352 75.0723 28.8302 75.4757 29.0957C75.6774 29.2334 75.8791 29.3612 76.0616 29.5185C76.2633 29.6955 76.4458 29.8922 76.6283 30.079C77.0221 30.4822 77.4255 30.846 77.9346 31.0623C78.5205 31.318 79.1352 31.495 79.7403 31.7113V31.1901C78.7702 31.5048 77.8289 30.8263 77.0797 30.2757C76.3305 29.725 75.639 29.0957 75.1299 28.3091L74.7649 28.6827C75.5237 29.2334 76.2729 29.784 77.0317 30.3347C77.7329 30.846 78.4244 31.4261 79.2216 31.7899L79.3561 31.2885C78.9911 31.3278 78.6357 31.2885 78.2899 31.1508C78.021 31.0525 77.8673 31.4163 78.0306 31.6031C78.2515 31.8588 78.5493 31.9866 78.8759 32.0161C79.2024 32.0456 79.212 31.5048 78.8759 31.4753C78.6838 31.4556 78.5301 31.3671 78.4052 31.2196L78.1459 31.6719C78.5301 31.8194 78.9431 31.8686 79.3561 31.8293C79.4714 31.8194 79.577 31.7506 79.6154 31.6326C79.6442 31.5245 79.5962 31.377 79.4906 31.3278C78.703 30.964 78.0018 30.3838 77.3006 29.8725C76.5418 29.3219 75.7927 28.7712 75.0339 28.2206C74.813 28.0632 74.5344 28.3681 74.6689 28.5942C75.2356 29.4792 76.0136 30.1872 76.8492 30.787C77.6848 31.3868 78.7702 32.0849 79.8748 31.7211C80.1245 31.6326 80.1245 31.2885 79.8748 31.2C79.2985 31.0033 78.703 30.8263 78.1459 30.5903C77.6752 30.3838 77.3198 30.0397 76.9645 29.6758C76.6091 29.312 76.2633 28.9875 75.8503 28.7122C75.4853 28.4664 75.1011 28.2304 74.909 27.8076L74.544 28.1812C75.5525 28.8204 76.5322 29.5087 77.4543 30.2658C78.2803 30.9345 79.2504 32.0259 80.403 31.495C80.5855 31.4163 80.5663 31.1115 80.403 31.023C79.212 30.3937 78.0498 29.7348 76.8972 29.0367C76.6379 28.8794 76.3786 28.722 76.148 28.5352C76.0904 28.486 76.0424 28.4369 75.9944 28.3877C75.9655 28.3582 75.9463 28.3386 75.9175 28.3091C75.8407 28.2304 75.8791 28.2206 75.8023 28.3582C75.7254 28.4959 75.7254 28.4467 75.8023 28.486C75.8791 28.5155 75.9463 28.5844 76.0136 28.6237C76.5514 28.9875 77.0605 29.4202 77.5696 29.8332C78.0786 30.2462 78.5685 30.6788 79.116 31.0131C79.529 31.259 80.2301 31.5638 80.6528 31.1803C80.8833 30.9738 80.8737 30.6395 80.6816 30.4133C80.4895 30.1872 80.1917 30.138 79.942 30.0102C79.3945 29.7447 78.9335 29.3415 78.4244 29.0072C77.8481 28.6237 77.2238 28.3091 76.6187 27.9747C76.3209 27.8076 76.0328 27.6404 75.7446 27.4536C75.4565 27.2668 75.1587 27.0701 74.9474 26.8046L74.5728 27.1881C75.6582 28.1026 76.7916 28.9482 77.973 29.725C78.5493 30.0987 79.1256 30.5018 79.7403 30.8066C80.0476 30.9541 80.3934 31.0623 80.7296 30.9345C80.8833 30.8755 81.0274 30.7575 81.0658 30.5805C81.1042 30.4232 81.0562 30.2462 81.0081 30.0888C80.9601 29.8922 80.8833 29.7053 80.8064 29.5185C80.7296 29.3415 80.672 29.1449 80.5471 28.9974C80.4319 28.8695 80.259 28.781 80.1053 28.6925C79.9132 28.5745 79.7307 28.4565 79.5386 28.3484L79.3369 28.84C79.6058 28.9285 79.9036 29.017 80.1245 29.2039C80.2109 29.2825 80.2974 29.3809 80.3358 29.4988C80.355 29.548 80.3742 29.607 80.3742 29.666C80.3742 29.6955 80.3742 29.7348 80.3742 29.7643C80.3742 29.784 80.3454 29.8332 80.3742 29.8037L80.5567 29.725C80.4703 29.7348 80.307 29.6168 80.2301 29.5775C80.1053 29.5185 79.9804 29.4497 79.8556 29.371C79.625 29.2334 79.4041 29.0859 79.1832 28.9482C78.7126 28.6434 78.2419 28.3877 77.7329 28.1812C77.2238 27.9747 76.8012 27.7191 76.3978 27.3651C75.9944 27.0111 75.6294 26.6079 75.2836 26.195L74.9666 26.6178C75.3508 26.7948 75.6774 27.0603 76.0232 27.3159C76.3882 27.5912 76.7628 27.7977 77.1854 27.9649C78.069 28.3091 78.847 28.8204 79.6058 29.3809C79.9324 29.6267 80.2686 29.9118 80.3454 30.3347C80.3742 30.4822 80.5375 30.5608 80.672 30.5215C80.816 30.4822 80.8833 30.3347 80.8545 30.1872H80.816Z" fill="black"/>
</g>
<defs>
<clipPath id="clip0_101_633">
<rect width="248" height="106" fill="white"/>
</clipPath>
</defs>
</svg>
