<svg width="74" height="75" viewBox="0 0 74 75" fill="none" xmlns="http://www.w3.org/2000/svg">
<path d="M72.8838 26.7281L71.1387 35.5719C69.8467 42.1219 64.1241 46.875 57.5319 46.875H18.5617C19.3232 52.2219 23.902 56.25 29.2362 56.25H60.1219C60.9729 56.25 61.6636 56.95 61.6636 57.8125C61.6636 58.675 60.9729 59.375 60.1219 59.375H29.2392C22.3511 59.375 16.4434 54.1625 15.4968 47.2469L10.0054 7.16875C9.68783 4.8625 7.71758 3.125 5.42358 3.125H1.54167C0.690667 3.125 0 2.425 0 1.5625C0 0.7 0.690667 0 1.54167 0H5.42358C9.24692 0 12.5307 2.89687 13.0579 6.7375L13.8472 12.5H35.4583C36.3093 12.5 37 13.2 37 14.0625C37 14.925 36.3093 15.625 35.4583 15.625H14.2758L18.13 43.75H57.535C62.6626 43.75 67.1118 40.0531 68.117 34.9594L69.8622 26.1156C70.0287 25.2688 70.8242 24.7156 71.6752 24.8906C72.5107 25.0594 73.0503 25.8813 72.8838 26.7281ZM27.75 68.75C27.75 72.1969 24.9842 75 21.5833 75C18.1824 75 15.4167 72.1969 15.4167 68.75C15.4167 65.3031 18.1824 62.5 21.5833 62.5C24.9842 62.5 27.75 65.3031 27.75 68.75ZM24.6667 68.75C24.6667 67.0281 23.2822 65.625 21.5833 65.625C19.8844 65.625 18.5 67.0281 18.5 68.75C18.5 70.4719 19.8844 71.875 21.5833 71.875C23.2822 71.875 24.6667 70.4719 24.6667 68.75ZM58.5833 68.75C58.5833 72.1969 55.8176 75 52.4167 75C49.0157 75 46.25 72.1969 46.25 68.75C46.25 65.3031 49.0157 62.5 52.4167 62.5C55.8176 62.5 58.5833 65.3031 58.5833 68.75ZM55.5 68.75C55.5 67.0281 54.1156 65.625 52.4167 65.625C50.7178 65.625 49.3333 67.0281 49.3333 68.75C49.3333 70.4719 50.7178 71.875 52.4167 71.875C54.1156 71.875 55.5 70.4719 55.5 68.75ZM43.1667 9.375C43.1667 4.325 46.9684 0.21875 51.6458 0.21875C54.575 0.21875 57.0787 1.52813 58.6049 3.65937C60.1466 1.54688 62.6595 0.21875 65.5208 0.21875C70.1982 0.21875 74 4.325 74 9.375C74 16.825 64.0902 25.2531 62.1045 26.8656C61.0685 27.7094 59.8259 28.1281 58.5833 28.1281C57.3407 28.1281 56.0982 27.7094 55.0622 26.8656C53.0734 25.2531 43.1667 16.8281 43.1667 9.375ZM46.25 9.375C46.25 14.3719 53.0025 21.1875 56.9892 24.425C57.9297 25.1844 59.237 25.1844 60.1743 24.425C64.1611 21.1844 70.9136 14.3688 70.9136 9.375C70.9136 6.05 68.4932 3.34375 65.5178 3.34375C62.6657 3.34375 60.4426 5.25938 60.1096 8.00313C60.014 8.78438 59.3573 9.375 58.5802 9.375C57.8002 9.375 57.1434 8.78438 57.0509 8C56.7272 5.25938 54.501 3.34375 51.6458 3.34375C48.6704 3.34375 46.25 6.05 46.25 9.375Z" fill="black" fill-opacity="0.43"/>
</svg>
